<svg width="32" height="32" viewBox="0 0 32 32" fill="none" xmlns="http://www.w3.org/2000/svg">
<path d="M6.00004 10V22C6.00004 23.8856 6.00004 24.8284 6.58583 25.4142C7.17161 26 8.11442 26 10 26H22C23.8857 26 24.8285 26 25.4143 25.4142C26 24.8284 26 23.8856 26 22V10M6.00004 10H26M6.00004 10H3.83337C3.59767 10 3.47982 10 3.4066 9.92678C3.33337 9.85355 3.33337 9.7357 3.33337 9.5V9C3.33337 7.58579 3.33337 6.87868 3.77271 6.43934C4.21205 6 4.91916 6 6.33337 6H25.6667C27.0809 6 27.788 6 28.2274 6.43934C28.6667 6.87868 28.6667 7.58579 28.6667 9V9.5C28.6667 9.7357 28.6667 9.85355 28.5935 9.92678C28.5203 10 28.4024 10 28.1667 10H26" stroke="white"/>
<path d="M12.6666 19.3333H19.3333" stroke="white" stroke-linecap="round"/>
</svg>
